<?xml version="1.0" encoding="UTF-8"?><!DOCTYPE svg PUBLIC "-//W3C//DTD SVG 1.1//EN" "http://www.w3.org/Graphics/SVG/1.1/DTD/svg11.dtd"><svg xmlns="http://www.w3.org/2000/svg" xmlns:xlink="http://www.w3.org/1999/xlink" version="1.1" width="24" height="24" viewBox="0 0 24 24"><path d="M6,2A4,4 0 0,1 10,6C10,7.86 8.73,9.43 7,9.87V14.13C8.73,14.57 10,16.14 10,18A4,4 0 0,1 6,22A4,4 0 0,1 2,18C2,16.14 3.27,14.57 5,14.13V9.87C3.27,9.43 2,7.86 2,6A4,4 0 0,1 6,2M6,4A2,2 0 0,0 4,6A2,2 0 0,0 6,8A2,2 0 0,0 8,6A2,2 0 0,0 6,4M6,16A2,2 0 0,0 4,18A2,2 0 0,0 6,20A2,2 0 0,0 8,18A2,2 0 0,0 6,16M22,18A4,4 0 0,1 18,22A4,4 0 0,1 14,18C14,16.14 15.27,14.57 17,14.13V7H15V10.25L10.75,6L15,1.75V5H17A2,2 0 0,1 19,7V14.13C20.73,14.57 22,16.14 22,18M18,16A2,2 0 0,0 16,18A2,2 0 0,0 18,20A2,2 0 0,0 20,18A2,2 0 0,0 18,16Z" /></svg>